<svg xmlns="http://www.w3.org/2000/svg" viewBox="0 0 58 58"><defs><style>.cls-1{fill:#b62025;}.cls-2{isolation:isolate;}.cls-3{fill:#fff;}</style></defs><title>Asset 2</title><g id="Layer_2" data-name="Layer 2"><g id="Layer_1-2" data-name="Layer 1"><circle id="Ellipse_1" data-name="Ellipse 1" class="cls-1" cx="29" cy="29" r="29"/><g id="CO" class="cls-2"><g class="cls-2"><path class="cls-3" d="M17.09,38.16a7.06,7.06,0,0,1-2.88-3,10,10,0,0,1-1-4.61,10,10,0,0,1,1-4.6,7.09,7.09,0,0,1,2.88-3,8.78,8.78,0,0,1,4.37-1.06,8.74,8.74,0,0,1,5.42,1.73,1.73,1.73,0,0,1,.5.58,1.54,1.54,0,0,1,.15.72A1.72,1.72,0,0,1,27.18,26a1.06,1.06,0,0,1-.85.44,2.05,2.05,0,0,1-.59-.08,2.38,2.38,0,0,1-.56-.3,7.83,7.83,0,0,0-1.78-.9,5.26,5.26,0,0,0-1.75-.28,4.22,4.22,0,0,0-3.47,1.43A6.6,6.6,0,0,0,17,30.53q0,5.72,4.63,5.71A4.94,4.94,0,0,0,23.33,36a10.22,10.22,0,0,0,1.85-.9,4.14,4.14,0,0,1,.6-.3,1.82,1.82,0,0,1,.55-.08,1.06,1.06,0,0,1,.85.44,1.72,1.72,0,0,1,.35,1.07,1.49,1.49,0,0,1-.16.73,1.82,1.82,0,0,1-.49.57,8.74,8.74,0,0,1-5.42,1.73A8.78,8.78,0,0,1,17.09,38.16Z"/><path class="cls-3" d="M33,38.15a7.18,7.18,0,0,1-2.87-3,9.89,9.89,0,0,1-1-4.59,10,10,0,0,1,1-4.6,7.13,7.13,0,0,1,2.87-3,8.77,8.77,0,0,1,4.38-1.06,8.77,8.77,0,0,1,4.38,1.06,7.19,7.19,0,0,1,2.87,3,10,10,0,0,1,1,4.6,9.89,9.89,0,0,1-1,4.59,7.24,7.24,0,0,1-2.87,3,8.67,8.67,0,0,1-4.38,1.07A8.67,8.67,0,0,1,33,38.15Zm7.7-3.33a6.63,6.63,0,0,0,1.21-4.29,6.68,6.68,0,0,0-1.2-4.29,4.06,4.06,0,0,0-3.33-1.47A4,4,0,0,0,34,26.24a6.75,6.75,0,0,0-1.18,4.29,6.68,6.68,0,0,0,1.2,4.29,4,4,0,0,0,3.31,1.49A4,4,0,0,0,40.69,34.82Z"/></g></g><path id="Rectangle_4" data-name="Rectangle 4" class="cls-3" d="M21.5,26h0A1.5,1.5,0,0,1,23,27.5v6A1.5,1.5,0,0,1,21.5,35h0A1.5,1.5,0,0,1,20,33.5v-6A1.5,1.5,0,0,1,21.5,26Z"/><path id="Rectangle_11" data-name="Rectangle 11" class="cls-3" d="M37.5,26h0A1.5,1.5,0,0,1,39,27.5v6A1.5,1.5,0,0,1,37.5,35h0A1.5,1.5,0,0,1,36,33.5v-6A1.5,1.5,0,0,1,37.5,26Z"/><path id="Rectangle_8" data-name="Rectangle 8" class="cls-3" d="M21.5,40h0A1.5,1.5,0,0,1,23,41.5v1A1.5,1.5,0,0,1,21.5,44h0A1.5,1.5,0,0,1,20,42.5v-1A1.5,1.5,0,0,1,21.5,40Z"/><path id="Rectangle_12" data-name="Rectangle 12" class="cls-3" d="M37.5,40h0A1.5,1.5,0,0,1,39,41.5v1A1.5,1.5,0,0,1,37.5,44h0A1.5,1.5,0,0,1,36,42.5v-1A1.5,1.5,0,0,1,37.5,40Z"/><path id="Rectangle_5" data-name="Rectangle 5" class="cls-3" d="M21.5,12h0A1.5,1.5,0,0,1,23,13.5v6A1.5,1.5,0,0,1,21.5,21h0A1.5,1.5,0,0,1,20,19.5v-6A1.5,1.5,0,0,1,21.5,12Z"/><path id="Rectangle_10" data-name="Rectangle 10" class="cls-3" d="M37.5,12h0A1.5,1.5,0,0,1,39,13.5v6A1.5,1.5,0,0,1,37.5,21h0A1.5,1.5,0,0,1,36,19.5v-6A1.5,1.5,0,0,1,37.5,12Z"/><path id="Path_2" data-name="Path 2" class="cls-3" d="M30.38,20.18a1.48,1.48,0,0,1-2.07.32l-7.75-5.83a1.5,1.5,0,0,1,1.81-2.4l7.75,5.84A1.48,1.48,0,0,1,30.38,20.18Z"/><path id="Rectangle_9" data-name="Rectangle 9" class="cls-3" d="M38.49,12.39h0a1.5,1.5,0,0,1-.3,2.1l-8,6a1.5,1.5,0,0,1-2.1-.29h0a1.5,1.5,0,0,1,.3-2.11l8-6A1.51,1.51,0,0,1,38.49,12.39Z"/></g></g></svg>